<svg id="Layer_1" data-name="Layer 1" xmlns="http://www.w3.org/2000/svg" viewBox="0 0 1047 1047"><defs><style>.cls-1{fill:#e2695d;}.cls-2{fill:#fff;}</style></defs><title>logo_color</title><circle class="cls-1" cx="523.5" cy="523.5" r="523.5"/><path class="cls-2" d="M341,540.21q-4.6,13.84-7.93,28.23a6.15,6.15,0,0,0,6,7.51H610.66a6.15,6.15,0,0,0,6.15-6.15V459.09a6.15,6.15,0,0,0-6.15-6.15H286.06a6.14,6.14,0,0,0-5.47,3.33A400.12,400.12,0,0,0,237.12,619q-0.5,10.12-.51,20.37,0,6.86.23,13.66A6.15,6.15,0,0,0,243,659H569.91a6.15,6.15,0,0,1,6.15,6.15V778.93a6.15,6.15,0,0,1-6.15,6.15H315.71a6.13,6.13,0,0,1-5.64-3.68q-6.61-15.3-11.82-31.3A6.16,6.16,0,0,1,304.1,742H525.31a6.15,6.15,0,0,0,6.15-6.15V708.2a6.15,6.15,0,0,0-6.15-6.15H248.73a6.15,6.15,0,0,0-6.07,7.21q2.91,16.63,7.16,32.77a399.71,399.71,0,0,0,30.37,79.7,6.14,6.14,0,0,0,5.47,3.34h325a6.15,6.15,0,0,0,6.15-6.15V625.16a6.15,6.15,0,0,0-6.15-6.15H288a6.15,6.15,0,0,1-6.14-6.6,356.2,356.2,0,0,1,28.59-115.82,6.13,6.13,0,0,1,5.63-3.67H569.91a6.15,6.15,0,0,1,6.15,6.15v30.75a6.15,6.15,0,0,1-6.15,6.15h-223A6.17,6.17,0,0,0,341,540.21Z" transform="translate(-116.5 -113.5)"/><path class="cls-2" d="M787.49,695.9V625.16a6.15,6.15,0,0,0-6.15-6.15H752.89a6.15,6.15,0,0,0-6.15,6.15V735.88a6.15,6.15,0,0,0,6.15,6.15H974.11A6.16,6.16,0,0,1,980,750.1q-5.19,16-11.82,31.3a6.13,6.13,0,0,1-5.64,3.68H708.3a6.15,6.15,0,0,1-6.15-6.15V499.07a6.15,6.15,0,0,1,6.15-6.15H962.17a6.13,6.13,0,0,1,5.63,3.67q6.65,15.3,11.9,31.3a6.16,6.16,0,0,1-5.84,8.08h-221a6.15,6.15,0,0,0-6.15,6.15V569.8a6.15,6.15,0,0,0,6.15,6.15h276.45a6.15,6.15,0,0,0,6.06-7.22q-2.94-16.63-7.23-32.76a399.58,399.58,0,0,0-30.56-79.71,6.14,6.14,0,0,0-5.47-3.33H667.55a6.15,6.15,0,0,0-6.15,6.15V818.91a6.15,6.15,0,0,0,6.15,6.15h325a6.14,6.14,0,0,0,5.47-3.34,399.71,399.71,0,0,0,30.37-79.7q4.24-16.13,7.16-32.77a6.15,6.15,0,0,0-6.07-7.21H793.64A6.15,6.15,0,0,1,787.49,695.9Z" transform="translate(-116.5 -113.5)"/></svg>